<svg xmlns="http://www.w3.org/2000/svg" xml:space="preserve" viewBox="0 0 1024 1024">
  <path d="M591.51 784.567c-20.572 13.671-41.62 25.817-62.993 37.451-10.552 5.744-20.587 5.173-30.912-.206-43.887-22.86-85.4-49.287-122.81-81.839-50.949-44.333-91.25-96.386-115.498-160.012-12.556-32.948-20.375-67.098-25.397-101.898-3.677-25.48-6.431-51.056-7.387-76.834-.74-19.959-2.059-39.895-1.663-59.88.066-3.311.342-6.681 1.057-9.906 2.244-10.117 9.695-14 19.078-15.631 56.143-9.76 109.34-28.48 160.758-52.715 31.574-14.882 61.24-33.061 90.681-51.65 11.296-7.132 21.964-7.506 33.5.044 31.24 20.443 63.31 39.503 97.195 55.33 42.07 19.648 85.72 34.681 131.086 44.65 8.429 1.853 17.007 3.07 25.372 5.161 11.707 2.926 16.607 9.65 16.76 21.549.27 20.987.241 41.992-1.162 62.92-2.078 30.973-5.26 61.842-10.534 92.489-4.522 26.279-10.46 52.184-19.356 77.302-14.24 40.206-34.835 76.91-61.415 110.356-32.714 41.165-72.594 74.126-116.36 103.319M393.95 433.51c0 8.498-.014 16.996 0 25.494.074 44.155.041 88.312.303 132.466.077 12.976 10.952 23.215 23.875 23.22 62.82.028 125.64.03 188.46.01 12.315-.003 21.181-7.086 24.247-18.992 1.571-6.099.781-12.269.792-18.395.085-50.156.077-100.312.022-150.468-.016-14.447-10.235-25.46-23.97-25.482-63.32-.098-126.64-.059-189.96-.003-6.037.005-11.247 2.221-15.79 6.41-7.398 6.82-8.275 15.547-7.98 25.74m111.358-61.094c.404 3.066-1.425 6.933 1.173 9.06 3.09 2.531 7.395 1.56 11.057.75 2.844-.629 3.185-3.416 3.175-6.096-.047-12.66.172-25.323-.103-37.977-.111-5.111.905-8.99 4.879-12.736 5.097-4.805 6.232-11.354 3.316-17.909-2.862-6.433-7.963-10.11-15.241-10.176-6.744-.062-13.59 4.212-15.943 10.117-2.912 7.308-1.164 13.865 4.226 19.234 2.605 2.595 3.586 5.192 3.532 8.779-.179 11.99-.07 23.986-.071 36.954m25.016 322.788c-.72-4.288-2.906-7.878-6.063-10.641-2.965-2.596-3.648-5.573-3.602-9.282.149-11.817.071-23.637.02-35.455-.025-5.788-1.14-6.677-7.84-6.634-6.922.045-7.491.51-7.512 6.748-.038 11.984-.108 23.97.04 35.953.046 3.708-.8 6.56-3.605 9.283-6.266 6.086-7.16 14.33-2.89 21.392 3.9 6.447 12.206 9.586 19.521 7.375 7.667-2.316 12.331-9.22 11.931-18.739M724.86 509.261c.01-9.27-4.203-15.74-12.144-18.653-7.07-2.593-14.437-.475-19.986 6.212-2.157 2.6-4.544 3.542-7.763 3.511-9.32-.09-18.642.06-27.962-.058-3.782-.047-5.578 1.593-5.639 5.29-.024 1.498.088 3.006-.05 4.492-.405 4.386 1.602 5.851 5.876 5.743 8.65-.218 17.313.128 25.96-.123 4.452-.13 7.828.94 11.002 4.347 4.88 5.24 11.152 7.029 18.214 4.803 7.227-2.277 11.33-7.233 12.492-15.564m-394.002-15.674c-8.426-5.506-15.7-5.463-22.472.132-6.057 5.005-8.184 14.099-4.974 21.27 5.194 11.605 19.18 14.476 29.054 5.436 3.926-3.594 7.829-4.976 12.919-4.738 6.137.286 12.297.098 18.447.092 10.18-.01 10.043-.017 9.903-10.001-.057-4.124-1.736-5.61-5.73-5.514-6.977.168-13.985-.307-20.936.154-6.45.429-11.792-.893-16.211-6.831m243.72-160.872c.95 3.632 2.636 6.888 5.497 9.333 2.53 2.16 3.23 4.76 3.173 7.97-.14 7.828-.023 15.66-.015 23.491.01 9.476.006 9.313 9.691 9.273 4.408-.019 5.875-1.869 5.802-6.042-.15-8.662.073-17.33-.095-25.99-.066-3.396.767-5.876 3.446-8.257 5.47-4.86 7.153-11.168 4.745-18.15-2.825-8.193-10.546-12.457-19.029-10.876-8.125 1.515-13.621 9.102-13.216 19.248m-143.371 49.878c.997.036 1.993.092 2.99.104 8.204.094 8.472-.161 8.478-8.303.006-7.981.11-15.966-.072-23.943-.08-3.533.858-6.137 3.423-8.81 8.381-8.73 5.773-22.52-4.815-27.137-7.16-3.12-15.37-.84-19.972 5.547-4.66 6.471-4.233 15.062 1.743 20.948 3.249 3.199 4.607 6.415 4.431 10.934-.321 8.301-.066 16.624-.102 24.938-.011 2.472.244 4.704 3.896 5.722m143.154 299.218c.199 8.465 4.72 14.707 12.198 16.841 6.853 1.956 14.609-.778 18.406-6.487 3.885-5.844 4.243-14.297-.88-18.914-5.387-4.856-5.67-10.325-5.428-16.554.194-4.98.037-9.973.03-14.96-.01-8.729-.013-8.729-8.922-8.536-.332.007-.667.04-.997.016-4-.282-5.739 1.479-5.64 5.574.166 6.978-.18 13.972.101 20.943.198 4.89-.36 9.09-4.499 12.446-2.647 2.146-3.475 5.582-4.369 9.631M442.152 636.66c-2.605-5.475-7.427-3.48-11.388-2.928-3.953.55-3.443 4.242-3.439 7.238.007 5.157-.183 10.321.042 15.468.28 6.445-.128 12.093-5.643 17.043-4.896 4.393-4.573 12.517-.92 18.008 4.144 6.229 11.592 9.21 18.107 7.246 12.1-3.647 16.162-17.587 7.617-27.146-2.764-3.092-4.06-6.066-3.956-10.191.2-7.973-.089-15.957-.42-24.738m209.176-208.932c-.003.83.09 1.672-.024 2.485-.693 4.911 1.165 6.899 6.324 6.581 6.441-.397 12.928.001 19.39-.145 5.704-.128 8.854-3.33 8.796-8.562-.055-5.016-2.992-7.67-8.836-7.749-6.3-.086-12.611.206-18.896-.097-4.953-.239-7.182 1.652-6.754 7.487M350.78 436.7c4.153 0 8.307.03 12.46-.007 11.06-.099 10.373 1.617 10.462-11.008.026-3.803-1.528-5.461-5.342-5.398-6.644.11-13.29.034-19.936.033-1.506 0-2.989.065-4.312.934-3.104 2.04-5.495 4.553-4.384 8.605 1.39 5.07 4.97 7.21 11.052 6.84M672.387 581.31c-3.82.003-7.641.004-11.462.008-9.713.01-11.412 2.15-9.523 11.843.398 2.04 1.399 3.522 3.518 3.55 8.13.11 16.283.434 24.384-.05 4.323-.26 6.538-3.567 6.369-8.08-.155-4.134-2.876-6.85-7.347-7.207-1.652-.132-3.32-.049-5.94-.064m-305.23.023c-4.664-.003-9.329-.028-13.993-.004-5.06.026-9.708 3.665-9.94 7.735-.213 3.755 4.199 7.607 9.403 7.818 5.32.216 10.657.041 15.986.115 3.548.05 5.256-1.541 5.068-5.146-.086-1.66-.117-3.338.007-4.995.311-4.121-1.588-5.883-6.531-5.523z"/>
  <path d="M534.018 533.105c3.549 10.449 7.06 20.497 10.341 30.62 1.736 5.355.164 7.305-5.534 7.56a9.808 9.808 0 0 1-.5.008c-19.88-.12-16.976 2.159-23.338-16.143-5.89-16.941-1.735-13.468-19.322-13.799-9.156-.172-18.321.093-27.478-.081-3.787-.072-5.815 1.42-6.903 4.999-1.933 6.358-4.122 12.639-6.243 18.939-1.377 4.093-4.075 6.283-8.594 6.113-3.825-.144-7.66.02-11.49-.019-6.737-.068-8.234-1.973-6.123-8.206 6.993-20.637 14.055-41.251 21.137-61.858 5.73-16.673 11.53-33.322 17.291-49.984 2.668-7.715 3.785-8.539 11.822-8.546 5.496-.004 10.996.142 16.487-.024 4.648-.14 7.334 1.741 8.896 6.24 9.707 27.971 19.592 55.881 29.551 84.18m-37.284-32.492-9.226-27.028-1.618-.015c-5.631 14.834-10.692 29.863-15.627 46.009 10.365 0 19.632.197 28.883-.1 3.553-.115 2.769-3.138 2.086-5.36-1.317-4.283-2.84-8.502-4.498-13.506zM591.337 536c-.004 9.993-.142 19.488.047 28.977.092 4.598-2.068 6.336-6.31 6.322-3.997-.013-7.994.04-11.99.003-6.518-.06-7.45-1.008-7.451-7.623-.003-32.975.01-65.95.014-98.924 0-5.163.113-10.33-.07-15.487-.169-4.751 2.09-6.663 6.626-6.576 4.162.08 8.327-.037 12.49.022 5.585.08 6.632 1.116 6.637 6.852.027 28.644.009 57.29.007 86.434z"/>
</svg>
