<svg xmlns="http://www.w3.org/2000/svg" xml:space="preserve" viewBox="0 0 1024 1024"><path d="M270.798 464.011c6.185-11.974 15.093-20.633 27.866-23.92 17.302-4.454 32.986-.59 44.947 13.076 15.687 17.92 30.686 36.443 45.987 54.701 1.283 1.532 2.526 3.114 3.946 4.512 3.399 3.345 6.564 3.277 9.944-.028a77.157 77.157 0 0 1 4.039-3.711c1.757-1.49 3.585-1.67 5.359.02 11.076 10.554 22.15 21.11 33.167 31.612-1.199 3.48-3.875 5.096-6.002 7.084-8.278 7.734-16.656 15.36-25.058 22.96-13.1 11.85-28.148 11.769-41.166-.107a4620.452 4620.452 0 0 0-24.455-22.135c-1.056-.95-1.877-2.424-3.76-2.194-2.02 2.15-.032 3.713 1.01 5.148 3.726 5.123 4.22 10.337 2.361 16.479-3.27 10.798-5.55 21.892-8.67 32.74-1.523 5.289 1.089 8.542 4.196 11.892 14.389 15.515 28.777 31.03 43.173 46.537a9344.438 9344.438 0 0 0 21.456 23.047c3.83 4.098 6.594 8.842 8.01 14.228 8.608 32.77 17.18 65.55 25.64 98.358 4.255 16.498-2.408 29.336-17.388 34.06-14.98 4.725-29.453-3.436-33.937-18.507-8.822-29.647-17.996-59.19-27.041-88.77-1.043-3.409-2.852-6.349-5.523-8.77-19.747-17.9-39.473-35.823-59.224-53.719-.713-.645-1.612-1.085-2.607-1.742-2.19 1.9-1.693 4.331-1.697 6.538-.038 18.663-.1 37.326.019 55.988.042 6.544-1.508 12.498-5.073 17.96-17.387 26.643-34.69 53.34-52.19 79.91-6.542 9.935-16.352 13.658-27.746 11.766-9.751-1.62-16.628-7.54-19.122-17.479-1.734-6.912-.391-13.447 3.077-19.713 11.291-20.402 21.932-41.185 33.855-61.207 5.818-9.77 6.326-19.506 5.32-30.086-1.479-15.541-2.57-31.118-3.876-46.676-.861-10.261-1.723-20.524-2.745-30.77-.812-8.14 1.157-15.885 3.18-23.586 11.07-42.14 23.48-83.891 36.835-125.361 1.07-3.321 2.487-6.53 3.893-10.135zM634.213 740.932c-5.003 22.62-9.985 44.814-14.865 67.03-2.845 12.952-13.042 21.29-26.42 21.389-13.713.101-23.908-7.706-26.832-20.73-1.112-4.955-.307-9.907.53-14.853 5.007-29.613 9.88-59.25 14.963-88.85 1.3-7.57 5.138-13.9 10.472-19.502 16.081-16.89 31.83-34.1 48.058-50.847 4.743-4.894 4.094-10.03 3.194-15.648-.493-3.08-.872-6.18-1.405-10.01 5.058.496 9.034 3.077 13.48 3.93 15.526 2.976 28.942-1.193 39.769-12.217 15.405-15.686 30.17-32.002 45.221-48.036 4.676-4.981 9.453-9.869 14.073-14.9 2.666-2.904 3.453-6.117.415-9.328-2.84-3.001-6.099-2.676-9.843 1.266-9.296 9.786-18.474 19.684-27.711 29.526-10.377 11.055-20.745 22.118-31.158 33.14-9.175 9.71-23.566 12.52-35.201 5.93-15.066-8.534-29.708-17.816-44.53-26.78-7.839-4.74-15.677-9.482-23.504-14.242-4.839-2.943-5.4-4.664-2.41-9.195a3016.372 3016.372 0 0 1 23.64-35.29c2.9-4.264 6.095-4.558 10.558-.84 11.941 9.944 25.233 17.951 37.935 26.805 3.029 2.112 6.005 2.792 9.246.666 4.55-2.984 4.447-5.794.079-8.818-9.037-6.257-17.931-12.718-26.902-19.07-2.624-1.857-3.316-4.177-2.709-7.37 2.731-14.367 15.764-25.428 30.43-25.445 29.33-.035 58.661-.009 87.992.02 20.442.02 35.512 15.218 35.52 35.884.023 63.328.069 126.656-.08 189.984-.017 6.613 1.6 12.293 5.06 17.876 13.69 22.086 27.093 44.35 40.698 66.49 8.177 13.306 5.35 28.084-7.152 36.417-11.792 7.86-27.383 4.671-36.12-7.606-17.966-25.244-35.558-50.759-53.845-75.766-7.354-10.056-10.888-20.58-10.296-32.98.532-11.14-.021-22.329.172-33.491.072-4.193-1.57-5.752-5.609-5.458-7.62.557-15.261-1.112-22.896.302-3.717.688-6.997 1.993-9.722 4.667-14.036 13.77-27.856 27.773-42.24 41.169-7.317 6.813-8.024 15.698-10.055 24.781zM756.766 358.155c10.205 8.422 14.563 19.125 14.554 31.817-.013 18.486.03 36.972-.01 55.459-.022 10.407-5.619 15.948-16.084 15.953-38.305.02-76.61.021-114.915.002-10.19-.005-15.649-5.514-15.656-15.75-.016-19.986-.03-39.97.018-59.956.047-20.007 16.878-36.858 36.999-36.943 20.984-.09 41.969.021 62.953-.067 2.533-.011 6.225 1.402 7.364-1.257 1.45-3.384 1.527-7.47-.835-10.981-2.225-3.306-4.543-6.485-4.547-10.834-.008-7.445 4.242-13.106 10.828-13.901 8.794-1.063 15.008 2.793 16.597 10.635.8 3.946.95 8.17-1.323 11.663-3.597 5.527-2.523 11.546-2.51 17.454.008 3.964 4.191 4.303 6.567 6.706M720.6 405.747c-.367-1.27-.61-2.592-1.125-3.798-2.141-5.007-7.23-7.99-12.791-7.596-5.134.364-9.71 4.215-11.061 9.306-1.344 5.065.673 10.41 5.11 13.546 8.378 5.922 18.302.594 19.867-11.458m-63.47-11.38c-1.16.023-2.365-.154-3.469.105-5.06 1.185-8.632 4.137-10.04 9.253-1.327 4.821.663 10.156 4.817 13.214 4.268 3.14 8.766 3.672 13.47.946 4.56-2.644 7.146-6.613 6.63-11.865-.62-6.302-4.507-10.083-11.408-11.653zM418.437 405.155c-7.135 21.794-27.89 36.649-51.503 35.759-26.714-1.008-46.477-17.852-51.3-42.658-7.152-36.779 21.088-65.992 54.806-64.419 35.676 1.665 59.268 36.89 47.997 71.318zM453.243 259.287c-15.104-1.579-28.379-6.107-38.524-17.468-22.724-25.445-19.052-71.486 8.684-89.432 28.844-18.664 81.658-12.588 90.419 36.499 4.974 27.869-7.29 59.26-37.934 67.752-7.252 2.01-14.632 3.047-22.645 2.65m36.386-59.655c-.34-2.298-.54-4.627-1.042-6.89-2.994-13.481-10.509-22.789-24.428-26-12.456-2.873-25.765 1.938-32.553 12.333-8.491 13.002-8.19 26.687-1.602 40.34 9.332 19.336 35.202 21.219 48.45 8.575 7.827-7.47 10.474-17.098 11.175-28.358zM581.923 459.947c3.942 1.873 7.718 3.271 10.858 5.828 9.088 7.398 11.986 20.657 5.732 31.655-8.96 15.759-19.237 30.737-29.629 45.59-4.238 6.057-10.686 7.628-17.761 5.176-7.534-2.61-15.046-5.277-22.6-7.833-12.577-4.256-18.862-16.016-14.843-28.599 5.304-16.609 11.106-33.078 17.297-49.379 4.364-11.49 16.062-16.496 27.86-12.78 7.966 2.51 14.964 7.228 23.086 10.342zM308.86 239.035c-.938-4.574-3.54-5.79-7.689-5.695-10.483.242-20.978.208-31.463.014-3.414-.063-5.085 1.098-6.076 4.362-1.592 5.242-3.64 10.346-5.513 15.503-.637 1.754-1.338 3.553-3.623 3.564-7.611.037-15.223.014-23.05.014-.275-4.012 1.603-6.905 2.674-9.914 11.424-32.108 23.078-64.135 34.412-96.274 1.552-4.403 3.707-5.995 8.292-5.754 6.807.357 13.659.325 20.469-.007 4.045-.197 5.827 1.302 7.15 5.06 10.811 30.728 21.83 61.382 32.788 92.059 1.618 4.53 3.242 9.056 5.02 14.02-4.38 1.747-8.714.877-12.9.926-13.724.163-13.726.089-18.619-12.84a488.256 488.256 0 0 1-1.873-5.038m-31.339-41.2c-1.251 3.792-2.492 7.588-3.758 11.374-.672 2.008-.216 3.366 2.111 3.38 7.938.044 15.876.017 24.868.017l-13.574-39.5-1.284.043c-2.683 7.987-5.366 15.973-8.363 24.687zM647.436 250.473c-1.117-3.026-2.11-5.676-3.085-8.334-3.768-10.274-1.977-8.558-12.567-8.697-9.164-.12-18.334.105-27.497-.077-3.418-.067-5.108 1.224-6.15 4.424-1.699 5.218-3.845 10.29-5.724 15.451-.656 1.8-1.309 3.589-3.56 3.615-7.464.088-14.943.498-22.126-.269-1.547-1.996-.467-3.576.06-5.05 12.111-33.846 24.326-67.656 36.35-101.533 1.329-3.743 3.19-5.313 7.207-5.167 7.157.26 14.337.254 21.493-.015 3.828-.144 5.63 1.336 6.87 4.872 9.411 26.847 18.988 53.636 28.511 80.443 2.45 6.897 4.902 13.794 7.34 20.696.595 1.684 1.574 3.296 1.056 5.733-8.01.83-16.106.727-24.168.1-3.107-.243-2.96-3.605-4.01-6.192m-15.14-46.463-10.744-30.88-1.046-.046-13.287 38.934h27.762a634.953 634.953 0 0 0-2.685-8.008zM802.186 201.835c17.788 21.56 6.694 50.902-21.08 56.397-12.663 2.506-25.217 1.688-37.285-3.036-13.219-5.176-19.845-15.572-22.026-29.194-.439-2.74.824-4.086 3.557-4.12 5.995-.073 11.991-.095 17.984-.236 2.601-.06 3.254 1.654 4.004 3.63 4.733 12.47 24.526 17.261 34.47 8.39 6.616-5.904 4.698-15.228-4.051-18.896-6.622-2.775-13.8-3.603-20.705-5.396-7.095-1.842-14.218-3.702-20.473-7.671-9.591-6.087-13.568-15.118-13.223-26.294.38-12.343 5.457-22.103 16.754-27.418 16.398-7.715 33.321-7.55 49.763-.231 11.56 5.145 16.562 15.287 17.865 27.875-7.202 2.125-14.488 1.617-21.722 1.648-2.168.01-2.678-1.786-3.241-3.286-4.569-12.172-20.448-12.525-28.151-8.184-3.59 2.023-5.55 5.025-5.409 9.396.134 4.173 2.189 6.835 5.678 8.678 6.438 3.4 13.65 4.052 20.557 5.787 9.532 2.394 19.186 4.527 26.734 12.161zM430.068 471.12c3.56-4.638 6.816-9.062 10.28-13.318 10.582-13.005 24.206-18.665 40.653-14.898 15.703 3.596 25.667 13.978 28.778 29.752 3.15 15.973-2.06 31.032-17.307 38.954-8.188 4.254-14.796 10.011-21.293 16.18-8.024 7.62-13.047 7.62-20.853-.073a22164.98 22164.98 0 0 0-29.895-29.395c-4.722-4.636-5.153-7.795-1.278-13.123 3.421-4.703 7.126-9.2 10.915-14.078zM685.864 214.15c-4.99-6.338-5.516-13.364-1.647-18.603 3.658-4.954 10.673-7.028 16.496-4.878 8.303 3.067 12.072 11.65 8.509 19.378-3.507 7.605-12.718 10.546-20.29 6.43-1.008-.548-1.868-1.368-3.068-2.327zM379.324 204.84c-2.076 9.978-9.133 15.117-17.472 13.141-7.431-1.76-11.686-7.642-11.18-15.454.415-6.397 5.77-11.748 12.71-12.7 6.533-.896 13.313 3.552 15.33 10.182.427 1.402.425 2.935.612 4.832zM536.37 194.43c6.743-5.43 12.582-6.063 18.618-2.262 4.94 3.11 7.465 9.545 5.98 15.235-2.17 8.316-10.6 12.892-18.671 10.134-8.112-2.771-11.835-11.457-8.28-19.453.533-1.2 1.383-2.258 2.352-3.654z"/></svg>